<?xml version="1.0" ?><svg height="40" preserveAspectRatio="xMidYMid" viewBox="0 0 1024 1024" width="40" xmlns="http://www.w3.org/2000/svg" xmlns:xlink="http://www.w3.org/1999/xlink"><defs><style>
      .cls-1, .cls-3 {
        fill: #fff;
      }

      .cls-2 {
        fill: #45668e;
      }

      .cls-3, .cls-4, .cls-5, .cls-6, .cls-7 {
        fill-rule: evenodd;
      }

      .cls-4, .cls-5, .cls-6 {
        fill: #010101;
      }

      .cls-4 {
        opacity: 0.05;
      }

      .cls-5 {
        opacity: 0.1;
      }

      .cls-6 {
        opacity: 0.15;
      }

      .cls-7 {
        fill: #000;
        opacity: 0.2;
      }
    </style></defs><circle class="cls-1" cx="512" cy="512" r="512"/><circle class="cls-2" cx="513" cy="513" r="501"/><path class="cls-3" d="M785.302,495.730 C795.429,482.650 803.467,472.154 809.401,464.236 C852.155,407.432 870.686,371.143 865.006,355.322 L862.779,351.617 C861.298,349.392 857.459,347.346 851.287,345.497 C845.106,343.649 837.199,343.354 827.564,344.573 L720.801,345.325 C718.329,345.080 715.857,345.138 713.384,345.497 C710.912,345.874 709.308,346.250 708.564,346.610 C707.818,346.987 707.205,347.289 706.713,347.534 L705.232,348.647 C703.995,349.384 702.636,350.684 701.155,352.541 C699.674,354.397 698.429,356.550 697.448,359.027 C685.832,388.911 672.612,416.700 657.780,442.386 C648.636,457.699 640.230,470.985 632.576,482.208 C624.915,493.457 618.489,501.726 613.299,507.027 C608.110,512.338 603.412,516.608 599.211,519.806 C595.004,523.029 591.796,524.378 589.578,523.888 C587.351,523.397 585.247,522.906 583.275,522.399 C579.813,520.182 577.029,517.163 574.934,513.327 C572.830,509.506 571.414,504.688 570.669,498.880 C569.932,493.080 569.490,488.074 569.376,483.868 C569.245,479.672 569.310,473.750 569.564,466.086 C569.810,458.428 569.932,453.249 569.932,450.526 C569.932,441.151 570.120,430.958 570.489,419.964 C570.857,408.978 571.169,400.266 571.414,393.844 C571.659,387.431 571.782,380.632 571.782,373.466 C571.782,366.317 571.349,360.689 570.481,356.606 C569.614,352.541 568.311,348.589 566.592,344.754 C564.857,340.933 562.327,337.963 558.988,335.870 C555.648,333.767 551.515,332.107 546.570,330.863 C533.466,327.893 516.783,326.307 496.524,326.045 C450.554,325.570 421.021,328.532 407.924,334.945 C402.734,337.669 398.035,341.366 393.836,346.062 C389.383,351.501 388.770,354.471 391.987,354.946 C406.819,357.171 417.313,362.488 423.493,370.881 L425.719,375.323 C427.446,378.547 429.173,384.223 430.909,392.371 C432.636,400.519 433.750,409.533 434.249,419.416 C435.485,437.446 435.485,452.873 434.249,465.724 C433.012,478.577 431.843,488.572 430.728,495.722 C429.615,502.888 427.946,508.689 425.727,513.131 C423.501,517.589 422.020,520.305 421.275,521.294 C420.529,522.276 419.916,522.898 419.424,523.143 C416.208,524.370 412.876,524.993 409.413,524.993 C405.951,524.993 401.752,523.257 396.808,519.798 C391.863,516.354 386.731,511.593 381.427,505.539 C376.106,499.493 370.123,491.027 363.443,480.155 C356.772,469.299 349.847,456.449 342.684,441.634 L336.758,430.885 C333.051,423.980 327.984,413.910 321.559,400.699 C315.132,387.487 309.443,374.710 304.507,362.349 C302.526,357.171 299.563,353.220 295.609,350.496 L293.760,349.384 C292.523,348.401 290.543,347.346 287.825,346.242 C285.099,345.129 282.267,344.328 279.296,343.829 L177.721,344.565 C167.342,344.565 160.303,346.921 156.594,351.617 L155.112,353.834 C154.367,355.076 153.999,357.056 153.999,359.764 C153.999,362.488 154.745,365.818 156.226,369.760 C171.059,404.592 187.184,438.181 204.603,470.526 C222.029,502.888 237.165,528.951 250.016,548.707 C262.868,568.479 275.965,587.114 289.315,604.652 C302.666,622.191 311.498,633.424 315.819,638.355 C320.142,643.305 323.539,647.011 326.012,649.474 L335.277,658.374 C341.203,664.296 349.921,671.397 361.413,679.676 C372.906,687.955 385.626,696.102 399.600,704.119 C413.556,712.152 429.812,718.688 448.344,723.759 C466.876,728.832 484.918,730.868 502.467,729.871 L545.097,729.871 C553.749,729.134 560.298,726.427 564.743,721.722 L566.224,719.874 C567.206,718.402 568.139,716.111 569.007,713.027 C569.866,709.943 570.309,706.540 570.309,702.843 C570.055,692.225 570.865,682.636 572.716,674.129 C574.565,665.605 576.669,659.191 579.018,654.855 C581.368,650.545 584.020,646.896 586.992,643.927 C589.954,640.958 592.050,639.182 593.293,638.561 C594.530,637.956 595.520,637.522 596.257,637.260 C602.183,635.289 609.166,637.203 617.204,643.003 C625.235,648.819 632.773,655.969 639.821,664.492 C646.860,673.017 655.324,682.580 665.212,693.206 C675.092,703.824 683.744,711.727 691.160,716.912 L698.577,721.370 C703.520,724.324 709.939,727.040 717.854,729.519 C725.760,731.980 732.685,732.603 738.613,731.367 L833.516,729.879 C842.905,729.879 850.198,728.341 855.388,725.249 C860.577,722.181 863.663,718.762 864.654,715.064 C865.635,711.358 865.701,707.177 864.842,702.474 C863.974,697.787 863.107,694.514 862.247,692.666 C861.380,690.817 860.577,689.263 859.832,688.035 C847.472,665.810 823.873,638.511 789.027,606.158 L788.282,605.421 L787.914,605.046 L787.546,604.686 L787.177,604.686 C771.354,589.618 761.351,579.490 757.152,574.295 C749.491,564.430 747.756,554.425 751.963,544.299 C754.909,536.617 766.026,520.435 785.302,495.730 Z"/><path class="cls-4" d="M0.008,509.066 C0.003,510.043 0.000,511.021 0.000,512.000 C0.000,794.770 229.230,1024.000 512.000,1024.000 C626.613,1024.000 732.430,986.341 817.752,922.721 L0.008,509.066 Z"/><path class="cls-5" d="M0.031,517.724 C0.010,515.819 0.000,513.911 0.000,512.000 C0.000,368.971 58.648,239.640 153.208,146.743 L874.075,874.003 C856.305,891.776 837.234,908.249 817.018,923.267 L0.031,517.724 Z"/><path class="cls-6" d="M872.758,875.315 C889.442,858.747 904.991,841.039 919.279,822.316 L495.341,0.266 C359.576,4.606 237.155,61.801 147.982,151.951 L872.758,875.315 Z"/><path class="cls-7" d="M918.196,823.730 C984.551,737.396 1024.000,629.305 1024.000,512.000 C1024.000,229.230 794.770,-0.000 512.000,-0.000 C504.185,-0.000 496.410,0.175 488.680,0.522 L918.196,823.730 Z"/></svg>