<?xml version="1.0" ?><svg height="40" preserveAspectRatio="xMidYMid" viewBox="0 0 1024 1024" width="40" xmlns="http://www.w3.org/2000/svg" xmlns:xlink="http://www.w3.org/1999/xlink"><defs><style>
      .cls-1, .cls-3 {
        fill: #fff;
      }

      .cls-2 {
        fill: #dd4b39;
      }

      .cls-3, .cls-4, .cls-5, .cls-6, .cls-7 {
        fill-rule: evenodd;
      }

      .cls-4, .cls-5, .cls-6 {
        fill: #010101;
      }

      .cls-4 {
        opacity: 0.05;
      }

      .cls-5 {
        opacity: 0.1;
      }

      .cls-6 {
        opacity: 0.15;
      }

      .cls-7 {
        fill: #000;
        opacity: 0.2;
      }
    </style></defs><circle class="cls-1" cx="512" cy="512" r="512"/><circle class="cls-2" cx="513" cy="513" r="501"/><path class="cls-3" d="M952.239,562.592 L860.463,562.592 L860.463,655.102 C860.463,657.194 858.773,658.892 856.691,658.892 L817.207,658.892 C815.125,658.892 813.435,657.194 813.435,655.102 L813.435,562.600 L722.127,562.600 C720.045,562.600 718.356,560.902 718.356,558.810 L718.356,518.604 C718.356,516.512 720.045,514.814 722.127,514.814 L813.435,514.814 L813.435,422.903 C813.435,420.811 815.125,419.113 817.207,419.113 L856.691,419.113 C858.773,419.113 860.463,420.811 860.463,422.903 L860.463,514.814 L952.239,514.814 C954.328,514.814 956.010,516.504 956.010,518.604 L956.010,558.802 C956.010,560.894 954.320,562.592 952.239,562.592 ZM710.134,179.009 L660.354,210.467 C659.758,210.853 659.057,211.050 658.348,211.050 L600.550,211.050 C622.431,229.235 667.957,267.068 667.957,340.279 C667.957,413.095 625.440,446.758 587.932,476.450 L586.703,477.701 C574.906,489.496 561.541,502.868 561.541,523.122 C561.541,543.733 574.906,554.853 585.639,563.790 L620.372,590.943 C661.546,625.789 700.337,658.611 700.314,725.098 C700.314,814.985 614.436,905.986 450.313,905.986 C309.164,905.986 245.989,837.225 245.989,769.086 C245.989,751.962 251.268,692.920 319.203,652.320 C376.721,616.784 455.464,611.364 497.770,608.453 L500.719,608.248 L499.060,606.103 C485.868,589.154 472.224,571.620 472.224,543.194 C472.224,528.595 476.123,519.241 480.241,509.326 L481.659,505.862 C472.035,506.764 461.129,507.780 451.278,507.780 C348.829,507.780 293.543,430.332 293.543,357.455 C293.543,310.155 316.239,262.232 354.268,229.258 C402.622,189.113 456.347,172.012 533.958,172.012 L708.128,172.012 C709.810,172.012 711.288,173.126 711.748,174.749 C712.216,176.371 711.552,178.107 710.134,179.009 ZM411.296,650.493 C357.149,670.209 329.657,703.373 329.657,749.014 C329.657,818.911 396.875,865.871 496.917,865.871 C583.105,865.871 636.656,826.256 636.664,762.476 C636.664,712.409 603.009,686.120 533.008,636.053 C525.435,635.098 520.669,635.098 511.188,635.098 C510.630,635.098 454.657,635.825 411.296,650.493 ZM464.621,208.177 C439.444,208.177 413.317,220.571 398.059,239.757 C384.000,257.260 377.166,280.440 377.166,310.640 C377.166,370.031 412.012,480.953 495.975,480.953 C518.662,480.953 544.631,470.197 560.598,454.180 C584.342,430.188 584.342,395.645 584.342,384.290 C584.342,312.315 541.712,208.177 464.621,208.177 Z"/><path class="cls-4" d="M0.008,509.066 C0.003,510.043 0.000,511.021 0.000,512.000 C0.000,794.770 229.230,1024.000 512.000,1024.000 C626.613,1024.000 732.430,986.341 817.752,922.721 L0.008,509.066 Z"/><path class="cls-5" d="M0.031,517.724 C0.010,515.819 0.000,513.911 0.000,512.000 C0.000,368.971 58.648,239.640 153.208,146.743 L874.075,874.003 C856.305,891.776 837.234,908.249 817.018,923.267 L0.031,517.724 Z"/><path class="cls-6" d="M872.758,875.315 C889.442,858.747 904.991,841.039 919.279,822.316 L495.341,0.266 C359.576,4.606 237.155,61.801 147.982,151.951 L872.758,875.315 Z"/><path class="cls-7" d="M918.196,823.730 C984.551,737.396 1024.000,629.305 1024.000,512.000 C1024.000,229.230 794.770,-0.000 512.000,-0.000 C504.185,-0.000 496.410,0.175 488.680,0.522 L918.196,823.730 Z"/></svg>